<svg width="301" height="174" viewBox="0 0 301 174" fill="none" xmlns="http://www.w3.org/2000/svg">
<path d="M301 71.4377H0V76.6687H301V71.4377Z" fill="#74009A"/>
<path d="M301 138.377H0V143.608H301V138.377Z" fill="#74009A"/>
<path d="M150.395 55.989C136.856 55.989 125.851 45.0039 125.851 31.4905C125.851 17.9772 136.856 6.9921 150.395 6.9921C163.934 6.9921 174.94 17.9772 174.94 31.4905C174.94 45.0039 163.934 55.989 150.395 55.989ZM150.395 10.8282C138.988 10.8282 129.711 20.087 129.711 31.4731C129.711 42.8592 138.988 52.118 150.395 52.118C161.803 52.118 171.079 42.8592 171.079 31.4731C171.079 20.087 161.803 10.8282 150.395 10.8282Z" fill="#74009A"/>
<path d="M57.7718 54.0535C57.7718 56.111 56.0947 57.7849 54.0333 57.7849C51.9719 57.7849 50.2949 56.111 50.2949 54.0535C50.2949 51.996 51.9719 50.3221 54.0333 50.3221C56.0947 50.3221 57.7718 51.996 57.7718 54.0535Z" fill="#74009A"/>
<path d="M246.862 45.3875C246.862 47.4451 245.185 49.119 243.123 49.119C241.062 49.119 239.385 47.4451 239.385 45.3875C239.385 43.33 241.062 41.6561 243.123 41.6561C245.185 41.6561 246.862 43.33 246.862 45.3875Z" fill="#74009A"/>
<path d="M73.7039 62.8765C85.6006 55.0649 100.31 48.9795 116.801 45.248L73.7039 62.8765Z" fill="#74009A"/>
<path d="M73.7038 64.7945C73.0749 64.7945 72.4635 64.4806 72.0967 63.9226C71.5027 63.0334 71.7647 61.8302 72.6557 61.2548C84.8319 53.2514 99.9606 47.0789 116.382 43.3474C117.43 43.1033 118.461 43.7659 118.688 44.7947C118.915 45.8409 118.269 46.8696 117.238 47.0963C101.253 50.7057 86.5614 56.7039 74.7695 64.4632C74.4376 64.6724 74.0707 64.777 73.7038 64.777V64.7945Z" fill="#74009A"/>
<path d="M186.313 43.9403C204.551 47.3055 220.867 53.513 233.952 61.7431L186.313 43.9403Z" fill="#74009A"/>
<path d="M233.952 63.6785C233.602 63.6785 233.236 63.5739 232.921 63.3821C219.854 55.1695 203.607 49.1015 185.946 45.8583C184.897 45.6665 184.199 44.6552 184.391 43.609C184.583 42.5628 185.579 41.8653 186.644 42.0571C204.778 45.405 221.496 51.6473 234.965 60.1215C235.873 60.6969 236.136 61.8826 235.577 62.7718C235.21 63.3472 234.581 63.6785 233.934 63.6785H233.952Z" fill="#74009A"/>
<path d="M45.3334 40.4704C44.7744 40.4704 44.2328 40.2437 43.8485 39.7729C43.1672 38.9534 43.272 37.7328 44.0931 37.0528C72.2539 13.5134 112.574 0 154.693 0C191.903 0 227.506 10.3748 254.933 29.2063C255.806 29.8166 256.033 31.0023 255.422 31.8916C254.811 32.7634 253.605 32.9901 252.732 32.3798C225.933 13.9842 191.117 3.85349 154.675 3.85349C113.43 3.85349 74.0184 17.0356 46.5388 40.017C46.1719 40.3134 45.7352 40.4704 45.2985 40.4704H45.3334Z" fill="#74009A"/>
<path d="M70.4721 55.274C69.3366 55.9541 68.2709 56.3202 67.2577 56.3725C66.2445 56.4248 65.3011 56.1459 64.4102 55.5356C63.5192 54.9253 62.6457 53.9663 61.7897 52.6411L64.9168 50.0779C65.3884 50.8451 65.8427 51.438 66.2619 51.839C66.6812 52.2401 67.0655 52.4842 67.4149 52.5539C67.7643 52.6237 68.1137 52.5539 68.4456 52.3621C68.8649 52.118 69.057 51.8041 69.0046 51.4554C68.9697 51.0892 68.8474 50.7579 68.6552 50.4441C68.201 49.6943 67.6595 49.1712 66.9782 48.8748C66.2969 48.5784 65.5107 48.3517 64.5849 48.1948L62.1915 47.7588C61.1608 47.5845 60.1825 47.2706 59.2741 46.8173C58.3657 46.3639 57.5796 45.5793 56.9332 44.4982C56.0073 42.9638 55.7627 41.5165 56.1995 40.1565C56.6187 38.7964 57.632 37.6456 59.1868 36.7215C60.1651 36.1461 61.0385 35.8496 61.8247 35.8148C62.6108 35.7799 63.3096 35.9543 63.9385 36.303C64.5674 36.6517 65.1089 37.0876 65.5631 37.6107C66.0173 38.1338 66.4366 38.6569 66.7685 39.1975L63.5716 41.6735C63.2397 41.1504 62.9252 40.697 62.6283 40.3309C62.3313 39.9647 62.0518 39.7206 61.7548 39.5985C61.4578 39.4765 61.1433 39.5288 60.794 39.7206C60.4271 39.9473 60.2349 40.2611 60.2524 40.6796C60.2524 41.0981 60.3747 41.4642 60.5494 41.7781C60.9512 42.4581 61.4403 42.9115 62.0168 43.1381C62.5933 43.3648 63.2746 43.5741 64.0782 43.7136L66.3667 44.132C67.5547 44.3238 68.6902 44.69 69.7384 45.2131C70.7865 45.7362 71.6949 46.6255 72.4461 47.8809C72.9528 48.7353 73.2148 49.6246 73.2497 50.5487C73.2672 51.4728 73.0576 52.3447 72.5859 53.1816C72.1142 54.0012 71.398 54.7161 70.4197 55.2915L70.4721 55.274Z" fill="#74009A"/>
<path d="M76.6563 51.4903L67.2927 32.5367L71.4853 30.4792L80.849 49.4328L76.6563 51.4903Z" fill="#74009A"/>
<path d="M83.1549 48.2645L75.2587 28.6658L78.3158 27.4452L86.1422 35.2742L82.3513 25.841L85.9325 24.3938L93.8288 43.9925L90.8939 45.1608L82.7706 36.6169L86.8584 46.7824L83.1549 48.2645Z" fill="#74009A"/>
<path d="M102.074 41.7259C100.537 42.1792 99.2444 42.2664 98.1788 41.9874C97.1131 41.691 96.2571 41.0981 95.5758 40.2089C94.912 39.3196 94.3704 38.1862 93.9512 36.8087L91.75 29.5202C91.3307 28.1253 91.156 26.8699 91.2084 25.7365C91.2609 24.6031 91.6627 23.6441 92.3964 22.842C93.1301 22.0225 94.2481 21.3948 95.7855 20.924C97.2878 20.4706 98.5282 20.366 99.5239 20.6101C100.52 20.8542 101.323 21.3599 101.935 22.1271C102.546 22.9118 103.035 23.8708 103.385 25.0216L103.909 26.7652L99.5239 28.073L98.9125 26.0503C98.7902 25.6493 98.6505 25.2657 98.5107 24.917C98.3535 24.5682 98.1438 24.2892 97.8818 24.1149C97.6023 23.9405 97.2354 23.9231 96.7463 24.0626C96.2746 24.2021 95.9776 24.4287 95.8204 24.7426C95.6632 25.0565 95.6282 25.4052 95.6806 25.8062C95.7331 26.1898 95.8204 26.6083 95.9427 27.0268L98.8077 36.5472C98.9475 37.0005 99.1047 37.4016 99.2968 37.7503C99.489 38.099 99.7336 38.3606 100.013 38.5175C100.31 38.6745 100.677 38.6919 101.096 38.5524C101.568 38.4129 101.865 38.1862 101.987 37.8898C102.109 37.5934 102.144 37.2446 102.074 36.8436C102.005 36.4426 101.917 36.0415 101.795 35.6405L101.149 33.5132L105.533 32.2055L106.058 33.9491C106.407 35.0999 106.547 36.181 106.477 37.1923C106.407 38.2037 106.04 39.0929 105.341 39.8776C104.643 40.6622 103.559 41.2725 102.04 41.7259H102.074Z" fill="#74009A"/>
<path d="M109.761 39.2673L105.201 18.6398L114.495 16.5997L115.177 19.7034L110.46 20.7496L111.595 25.876L115.194 25.0739L115.893 28.2299L112.294 29.0146L113.657 35.1871L118.426 34.1409L119.107 37.2272L109.761 39.2847V39.2673Z" fill="#74009A"/>
<path d="M179.989 35.5532L180.478 32.5193L186.732 25.6667C187.204 25.161 187.64 24.6728 188.077 24.1846C188.496 23.7138 188.863 23.2081 189.16 22.7025C189.457 22.1968 189.667 21.6388 189.772 21.0285C189.876 20.4357 189.824 19.9649 189.632 19.6336C189.44 19.3023 189.143 19.1105 188.723 19.0408C188.252 18.971 187.885 19.0408 187.57 19.25C187.273 19.4592 187.046 19.7731 186.872 20.1916C186.714 20.6101 186.575 21.0808 186.487 21.6039L186.313 22.6327L182.137 21.9527L182.312 20.8542C182.522 19.6162 182.889 18.5525 183.448 17.6458C184.007 16.7391 184.758 16.0765 185.701 15.6581C186.645 15.2396 187.815 15.1524 189.213 15.3616C191.082 15.6581 192.427 16.373 193.213 17.5063C194.017 18.6223 194.261 20.0521 193.982 21.7957C193.842 22.6327 193.58 23.3999 193.196 24.0799C192.811 24.76 192.34 25.4051 191.798 25.998C191.256 26.6083 190.662 27.236 190.051 27.8986L185.317 32.9726L191.431 33.9665L190.89 37.3318L179.971 35.5707L179.989 35.5532Z" fill="#74009A"/>
<path d="M198.559 39.4591C197.318 39.1626 196.357 38.657 195.641 37.9595C194.925 37.262 194.471 36.4251 194.261 35.4486C194.051 34.4722 194.086 33.3911 194.366 32.2229L196.602 22.9117C196.899 21.7086 197.336 20.7147 197.965 19.8952C198.576 19.0931 199.362 18.5351 200.323 18.2213C201.266 17.9074 202.402 17.9074 203.677 18.2213C204.97 18.5351 205.948 19.0408 206.664 19.7382C207.363 20.4357 207.8 21.2901 207.975 22.3014C208.149 23.2953 208.097 24.3938 207.817 25.597L205.581 34.9081C205.302 36.0589 204.848 37.0179 204.201 37.82C203.572 38.6047 202.769 39.1452 201.825 39.4416C200.882 39.738 199.781 39.738 198.576 39.4416L198.559 39.4591ZM199.484 35.6753C199.886 35.7799 200.218 35.7102 200.463 35.4835C200.707 35.2743 200.882 34.9779 201.022 34.6466C201.144 34.3153 201.231 34.0188 201.301 33.7573L203.502 24.6554C203.572 24.359 203.642 24.0451 203.695 23.6615C203.747 23.2953 203.712 22.9466 203.607 22.6153C203.502 22.3014 203.223 22.0748 202.804 21.9876C202.384 21.883 202.052 21.9527 201.808 22.1968C201.563 22.4409 201.371 22.7373 201.266 23.0861C201.144 23.4348 201.057 23.7661 200.987 24.0451L198.786 33.147C198.716 33.4086 198.681 33.705 198.646 34.0711C198.611 34.4373 198.646 34.7686 198.768 35.065C198.89 35.3615 199.135 35.5707 199.519 35.6579L199.484 35.6753Z" fill="#74009A"/>
<path d="M206.053 40.9237L207.014 37.9943L214.246 32.188C214.788 31.7695 215.312 31.351 215.801 30.9325C216.29 30.5315 216.727 30.0956 217.111 29.6248C217.496 29.154 217.775 28.6483 217.967 28.0729C218.159 27.4975 218.177 27.0267 218.037 26.678C217.897 26.3293 217.635 26.0851 217.234 25.9456C216.779 25.8062 216.395 25.8062 216.063 25.9805C215.731 26.1549 215.452 26.4164 215.225 26.8C214.997 27.1836 214.805 27.637 214.631 28.1427L214.299 29.1365L210.281 27.8288L210.63 26.7652C211.014 25.5795 211.556 24.5682 212.237 23.7661C212.919 22.964 213.775 22.4235 214.77 22.1445C215.766 21.8829 216.954 21.9701 218.282 22.406C220.081 22.9989 221.286 23.9056 221.915 25.1436C222.527 26.3816 222.562 27.8288 222.02 29.5027C221.758 30.3048 221.374 31.0197 220.902 31.63C220.413 32.2403 219.854 32.7982 219.225 33.3213C218.596 33.827 217.915 34.3675 217.199 34.9255L211.731 39.1975L217.618 41.1155L216.552 44.3587L206.053 40.9237Z" fill="#74009A"/>
<path d="M223.4 47.1486L225.252 42.772L219.26 40.2437L220.5 37.2795L230.703 27.2709L235.367 29.2412L230.266 41.3597L232.065 42.1094L230.807 45.0911L229.008 44.3239L227.156 48.7005L223.4 47.1137V47.1486ZM223.575 38.5698L226.51 39.8078L229.934 31.6998L223.575 38.5698Z" fill="#74009A"/>
<path d="M82.2639 173.93C80.6567 173.93 79.3989 173.634 78.4556 173.058C77.5297 172.483 76.8658 171.663 76.4815 170.6C76.0972 169.536 75.905 168.316 75.905 166.886V159.266C75.905 157.801 76.0972 156.546 76.4815 155.5C76.8658 154.453 77.5297 153.634 78.4556 153.059C79.3815 152.483 80.6567 152.204 82.2639 152.204C83.8711 152.204 85.0591 152.466 85.9325 152.971C86.806 153.477 87.4349 154.209 87.8018 155.116C88.1686 156.023 88.3433 157.104 88.3433 158.307V160.138H83.7663V158.028C83.7663 157.61 83.7488 157.208 83.6964 156.825C83.644 156.441 83.5217 156.127 83.3121 155.866C83.1025 155.604 82.7531 155.482 82.2465 155.482C81.7399 155.482 81.3905 155.622 81.1634 155.866C80.9363 156.11 80.779 156.459 80.7266 156.842C80.6567 157.226 80.6393 157.644 80.6393 158.08V168.019C80.6393 168.49 80.6742 168.926 80.7616 169.309C80.8314 169.693 80.9887 170.007 81.2332 170.251C81.4603 170.478 81.8097 170.6 82.2639 170.6C82.7531 170.6 83.1025 170.478 83.3121 170.216C83.5217 169.972 83.644 169.641 83.6964 169.24C83.7488 168.839 83.7663 168.438 83.7663 168.019V165.805H88.3433V167.636C88.3433 168.839 88.1686 169.902 87.8018 170.861C87.4524 171.803 86.8235 172.553 85.95 173.111C85.0765 173.651 83.8362 173.93 82.2465 173.93H82.2639Z" fill="#74009A"/>
<path d="M89.4439 173.616L93.4444 152.483H98.7726L102.721 173.616H98.4058L97.707 169.153H94.5974L93.8637 173.616H89.4439ZM95.0167 166.363H97.2703L96.1522 158.115L95.0342 166.363H95.0167Z" fill="#74009A"/>
<path d="M104.415 173.616V152.483H109.097V170.46H113.954V173.616H104.415Z" fill="#74009A"/>
<path d="M115.578 173.616V152.483H120.26V173.616H115.578Z" fill="#74009A"/>
<path d="M122.986 173.616V152.483H128.349C130.2 152.483 131.633 152.71 132.664 153.181C133.694 153.651 134.411 154.366 134.83 155.343C135.249 156.319 135.459 157.592 135.459 159.161V166.834C135.459 168.42 135.249 169.711 134.83 170.704C134.411 171.698 133.694 172.448 132.681 172.901C131.668 173.372 130.235 173.599 128.401 173.599H122.986V173.616ZM127.65 170.391H128.384C129.1 170.391 129.606 170.286 129.921 170.077C130.235 169.868 130.428 169.554 130.515 169.135C130.602 168.717 130.637 168.194 130.637 167.566V158.359C130.637 157.732 130.585 157.226 130.497 156.842C130.393 156.459 130.2 156.18 129.886 156.005C129.572 155.831 129.065 155.744 128.366 155.744H127.667V170.373L127.65 170.391Z" fill="#74009A"/>
<path d="M136.489 173.616L140.49 152.483H145.818L149.766 173.616H145.451L144.753 169.153H141.643L140.909 173.616H136.489ZM142.062 166.363H144.316L143.198 158.115L142.08 166.363H142.062Z" fill="#74009A"/>
<path d="M151.461 173.616V152.483H156.824C158.676 152.483 160.108 152.71 161.139 153.181C162.17 153.634 162.886 154.366 163.305 155.343C163.724 156.319 163.934 157.592 163.934 159.161V166.834C163.934 168.42 163.724 169.711 163.305 170.704C162.886 171.698 162.17 172.448 161.156 172.901C160.143 173.372 158.711 173.599 156.876 173.599H151.461V173.616ZM156.143 170.391H156.876C157.593 170.391 158.099 170.286 158.414 170.077C158.728 169.868 158.92 169.554 159.008 169.135C159.095 168.717 159.13 168.194 159.13 167.566V158.359C159.13 157.732 159.077 157.226 158.99 156.842C158.903 156.459 158.693 156.18 158.379 156.005C158.064 155.831 157.558 155.744 156.859 155.744H156.16V170.373L156.143 170.391Z" fill="#74009A"/>
<path d="M174.486 173.616V156.79C174.293 156.895 174.084 156.999 173.839 157.104C173.595 157.209 173.333 157.313 173.071 157.435C172.791 157.54 172.546 157.662 172.284 157.767C172.022 157.871 171.795 157.976 171.586 158.08V154.837C171.778 154.733 172.04 154.593 172.389 154.401C172.739 154.209 173.106 154.018 173.507 153.791C173.909 153.564 174.276 153.338 174.625 153.094C174.975 152.867 175.237 152.658 175.411 152.483H178.836V173.616H174.468H174.486Z" fill="#74009A"/>
<path d="M187.815 174C186.54 174 185.474 173.738 184.618 173.233C183.762 172.727 183.116 172.012 182.679 171.106C182.242 170.199 182.032 169.153 182.032 167.95V158.377C182.032 157.139 182.242 156.058 182.644 155.134C183.046 154.209 183.692 153.477 184.531 152.954C185.387 152.431 186.47 152.169 187.797 152.169C189.125 152.169 190.208 152.431 191.047 152.954C191.885 153.477 192.514 154.192 192.933 155.134C193.335 156.058 193.545 157.139 193.545 158.377V167.95C193.545 169.135 193.335 170.181 192.898 171.088C192.462 171.995 191.815 172.71 190.959 173.233C190.103 173.738 189.055 174 187.797 174H187.815ZM187.815 170.112C188.234 170.112 188.531 169.972 188.723 169.711C188.915 169.449 189.02 169.135 189.055 168.769C189.09 168.403 189.125 168.106 189.125 167.845V158.481C189.125 158.185 189.125 157.854 189.073 157.47C189.038 157.104 188.933 156.773 188.741 156.476C188.566 156.197 188.252 156.04 187.815 156.04C187.378 156.04 187.064 156.18 186.889 156.476C186.714 156.773 186.592 157.086 186.557 157.47C186.522 157.836 186.505 158.185 186.505 158.481V167.845C186.505 168.106 186.522 168.42 186.575 168.769C186.627 169.118 186.749 169.432 186.924 169.711C187.116 169.972 187.396 170.112 187.797 170.112H187.815Z" fill="#74009A"/>
<path d="M201.738 174C200.463 174 199.397 173.738 198.541 173.233C197.685 172.727 197.039 172.012 196.602 171.106C196.165 170.199 195.956 169.153 195.956 167.95V158.377C195.956 157.139 196.165 156.058 196.567 155.134C196.969 154.209 197.615 153.477 198.454 152.954C199.31 152.431 200.393 152.169 201.721 152.169C203.048 152.169 204.132 152.431 204.97 152.954C205.809 153.477 206.438 154.192 206.857 155.134C207.259 156.058 207.468 157.139 207.468 158.377V167.95C207.468 169.135 207.259 170.181 206.822 171.088C206.385 171.995 205.739 172.71 204.883 173.233C204.027 173.738 202.979 174 201.721 174H201.738ZM201.738 170.112C202.157 170.112 202.454 169.972 202.647 169.711C202.839 169.449 202.944 169.135 202.979 168.769C203.014 168.403 203.048 168.106 203.048 167.845V158.481C203.048 158.185 203.048 157.854 202.996 157.47C202.961 157.104 202.856 156.773 202.664 156.476C202.489 156.197 202.175 156.04 201.738 156.04C201.301 156.04 200.987 156.18 200.812 156.476C200.638 156.773 200.515 157.086 200.48 157.47C200.445 157.836 200.428 158.185 200.428 158.481V167.845C200.428 168.106 200.445 168.42 200.498 168.769C200.55 169.118 200.673 169.432 200.847 169.711C201.039 169.972 201.319 170.112 201.721 170.112H201.738Z" fill="#74009A"/>
<path d="M214.596 164.48C212.796 164.48 211.521 164.009 210.787 163.085C210.036 162.16 209.669 160.748 209.669 158.865V157.923C209.669 156.005 210.036 154.628 210.77 153.756C211.504 152.884 212.779 152.448 214.613 152.448C216.447 152.448 217.723 152.867 218.474 153.721C219.208 154.576 219.592 155.953 219.592 157.871V158.917C219.592 160.783 219.225 162.178 218.474 163.085C217.723 163.991 216.447 164.462 214.631 164.462L214.596 164.48ZM214.596 161.777C215.05 161.777 215.382 161.655 215.574 161.428C215.766 161.201 215.906 160.853 215.958 160.382C216.011 159.929 216.028 159.371 216.028 158.725V158.08C216.028 157.086 215.958 156.372 215.854 155.901C215.731 155.447 215.312 155.203 214.596 155.203C213.879 155.203 213.478 155.43 213.355 155.883C213.216 156.337 213.163 157.052 213.163 158.045V158.743C213.163 159.388 213.181 159.929 213.233 160.382C213.286 160.835 213.408 161.184 213.617 161.411C213.827 161.637 214.142 161.759 214.578 161.759L214.596 161.777ZM217.164 173.616L223.662 152.483H226.021L219.54 173.616H217.164ZM228.606 173.634C226.807 173.634 225.549 173.163 224.798 172.239C224.047 171.315 223.68 169.902 223.68 168.019V167.078C223.68 165.16 224.047 163.782 224.763 162.91C225.479 162.038 226.755 161.603 228.589 161.603C230.423 161.603 231.698 162.021 232.45 162.875C233.183 163.73 233.568 165.107 233.568 167.025V168.037C233.568 169.92 233.201 171.315 232.45 172.239C231.698 173.163 230.423 173.616 228.606 173.616V173.634ZM228.606 170.931C229.06 170.931 229.392 170.809 229.585 170.582C229.777 170.356 229.917 170.007 229.969 169.554C230.021 169.1 230.039 168.56 230.039 167.915V167.217C230.039 166.223 229.969 165.508 229.864 165.055C229.742 164.602 229.323 164.375 228.606 164.375C227.89 164.375 227.488 164.602 227.366 165.055C227.226 165.508 227.174 166.223 227.174 167.217V167.915C227.174 168.56 227.209 169.1 227.244 169.554C227.296 170.007 227.418 170.356 227.628 170.582C227.838 170.809 228.152 170.931 228.589 170.931H228.606Z" fill="#74009A"/>
<path d="M63.2571 153.826L65.4757 160.626H72.6383L66.8384 164.846L69.057 171.646L63.2571 167.444L57.4572 171.646L59.6759 164.846L53.876 160.626H61.0385L63.2571 153.826Z" fill="#74009A"/>
<path d="M244.469 153.826L246.687 160.626H253.85L248.05 164.846L250.269 171.646L244.469 167.444L238.669 171.646L240.887 164.846L235.07 160.626H242.25L244.469 153.826Z" fill="#74009A"/>
<path d="M15.5654 127.095V86.8867H24.8243V127.095H15.5654ZM23.8984 117.924L23.3743 107.183L42.6432 86.9041H53.0026L35.6204 105.579L30.4495 111.089L23.8984 117.924ZM43.1149 127.095L28.7898 109.572L34.8867 102.963L53.9984 127.078H43.1149V127.095Z" fill="#74009A"/>
<path d="M54.2777 114.524V107.34H70.5593V114.524H54.2777Z" fill="#74009A"/>
<path d="M87.5923 127.095H78.2636V86.8867H108.696V94.3495H87.5748V127.078L87.5923 127.095ZM86.911 104.986H106.25V112.449H86.911V104.986Z" fill="#74009A"/>
<path d="M134.201 127.793C131.022 127.793 128.069 127.27 125.361 126.241C122.654 125.212 120.313 123.748 118.339 121.882C116.365 119.999 114.827 117.802 113.727 115.273C112.626 112.745 112.085 109.99 112.085 107.008C112.085 104.027 112.626 101.272 113.727 98.7435C114.827 96.2152 116.365 94.0182 118.356 92.1351C120.348 90.2519 122.689 88.8047 125.379 87.7759C128.069 86.7472 130.987 86.2241 134.131 86.2241C137.276 86.2241 140.245 86.7472 142.901 87.7759C145.556 88.8047 147.88 90.2694 149.871 92.1351C151.845 94.0182 153.383 96.1978 154.501 98.7087C155.619 101.22 156.178 103.975 156.178 107.008C156.178 110.042 155.619 112.763 154.501 115.308C153.383 117.854 151.845 120.051 149.871 121.917C147.897 123.783 145.574 125.212 142.901 126.259C140.228 127.305 137.328 127.81 134.184 127.81L134.201 127.793ZM134.149 119.859C135.948 119.859 137.608 119.563 139.127 118.935C140.647 118.325 141.975 117.436 143.128 116.285C144.281 115.134 145.172 113.774 145.801 112.205C146.43 110.635 146.744 108.892 146.744 106.974C146.744 105.056 146.43 103.312 145.801 101.743C145.172 100.173 144.281 98.8133 143.145 97.6625C142.01 96.5117 140.682 95.6398 139.145 95.0295C137.608 94.4193 135.948 94.1054 134.131 94.1054C132.314 94.1054 130.672 94.4193 129.152 95.0295C127.632 95.6398 126.305 96.5291 125.152 97.6625C123.999 98.8133 123.108 100.173 122.479 101.743C121.85 103.312 121.536 105.056 121.536 106.974C121.536 108.892 121.85 110.583 122.479 112.17C123.108 113.756 123.999 115.134 125.134 116.267C126.27 117.418 127.597 118.29 129.135 118.918C130.672 119.528 132.332 119.842 134.149 119.842V119.859Z" fill="#74009A"/>
<path d="M182.766 127.793C179.587 127.793 176.634 127.27 173.927 126.241C171.219 125.212 168.878 123.748 166.904 121.882C164.93 119.999 163.392 117.802 162.292 115.273C161.191 112.745 160.65 109.99 160.65 107.008C160.65 104.027 161.191 101.272 162.292 98.7435C163.392 96.2152 164.93 94.0182 166.921 92.1351C168.913 90.2519 171.254 88.8047 173.944 87.7759C176.634 86.7472 179.552 86.2241 182.696 86.2241C185.841 86.2241 188.811 86.7472 191.466 87.7759C194.121 88.8047 196.445 90.2694 198.436 92.1351C200.41 94.0182 201.948 96.1978 203.066 98.7087C204.184 101.22 204.743 103.975 204.743 107.008C204.743 110.042 204.184 112.763 203.066 115.308C201.948 117.854 200.41 120.051 198.436 121.917C196.462 123.783 194.139 125.212 191.466 126.259C188.793 127.305 185.893 127.81 182.749 127.81L182.766 127.793ZM182.714 119.859C184.513 119.859 186.173 119.563 187.693 118.935C189.212 118.325 190.54 117.436 191.693 116.285C192.846 115.134 193.737 113.774 194.366 112.205C194.995 110.635 195.309 108.892 195.309 106.974C195.309 105.056 194.995 103.312 194.366 101.743C193.737 100.173 192.846 98.8133 191.711 97.6625C190.575 96.5117 189.247 95.6398 187.71 95.0295C186.173 94.4193 184.513 94.1054 182.696 94.1054C180.879 94.1054 179.237 94.4193 177.717 95.0295C176.198 95.6398 174.87 96.5291 173.717 97.6625C172.564 98.8133 171.673 100.173 171.044 101.743C170.415 103.312 170.101 105.056 170.101 106.974C170.101 108.892 170.415 110.583 171.044 112.17C171.673 113.756 172.564 115.134 173.699 116.267C174.835 117.418 176.163 118.29 177.7 118.918C179.237 119.528 180.897 119.842 182.714 119.842V119.859Z" fill="#74009A"/>
<path d="M211.766 127.095V86.8867H230.056C234.424 86.8867 238.284 87.7236 241.621 89.3801C244.958 91.054 247.561 93.3731 249.447 96.3547C251.334 99.3364 252.26 102.876 252.26 106.974C252.26 111.071 251.317 114.559 249.447 117.575C247.578 120.592 244.958 122.911 241.621 124.585C238.284 126.259 234.424 127.078 230.056 127.078H211.766V127.095ZM221.094 119.458H229.619C232.31 119.458 234.633 118.953 236.607 117.941C238.581 116.93 240.119 115.483 241.202 113.6C242.285 111.716 242.844 109.519 242.844 106.991C242.844 104.463 242.302 102.213 241.202 100.365C240.101 98.5169 238.581 97.0696 236.607 96.0583C234.633 95.047 232.31 94.5413 229.619 94.5413H221.094V119.458Z" fill="#74009A"/>
<path d="M272.525 127.793C269.31 127.793 266.218 127.357 263.266 126.503C260.313 125.648 257.938 124.515 256.138 123.137L259.3 116.128C261.03 117.348 263.074 118.36 265.432 119.144C267.79 119.929 270.184 120.313 272.595 120.313C274.429 120.313 275.914 120.138 277.049 119.772C278.185 119.406 279.006 118.9 279.547 118.255C280.089 117.61 280.351 116.86 280.351 116.006C280.351 114.942 279.932 114.088 279.093 113.46C278.255 112.832 277.137 112.309 275.757 111.908C274.376 111.507 272.857 111.124 271.18 110.757C269.502 110.391 267.843 109.938 266.166 109.415C264.489 108.892 262.969 108.194 261.589 107.34C260.209 106.503 259.091 105.387 258.217 104.009C257.361 102.632 256.924 100.871 256.924 98.7261C256.924 96.4245 257.553 94.3321 258.794 92.4315C260.034 90.5309 261.921 89.0313 264.436 87.898C266.952 86.7646 270.096 86.2066 273.905 86.2066C276.438 86.2066 278.936 86.503 281.382 87.0959C283.845 87.6887 286.011 88.578 287.88 89.7637L284.998 96.8255C283.111 95.7619 281.242 94.9598 279.355 94.4367C277.469 93.9136 275.634 93.652 273.835 93.652C272.036 93.652 270.551 93.8613 269.398 94.2798C268.245 94.6982 267.424 95.2388 266.917 95.9188C266.41 96.5814 266.166 97.366 266.166 98.2379C266.166 99.2666 266.585 100.104 267.424 100.731C268.262 101.359 269.38 101.865 270.76 102.248C272.14 102.632 273.66 103.015 275.337 103.399C277.014 103.783 278.674 104.219 280.351 104.724C282.028 105.23 283.548 105.893 284.928 106.729C286.308 107.566 287.426 108.682 288.3 110.06C289.156 111.437 289.592 113.181 289.592 115.291C289.592 117.558 288.963 119.615 287.688 121.498C286.43 123.381 284.526 124.881 282.028 126.032C279.512 127.183 276.333 127.758 272.507 127.758L272.525 127.793Z" fill="#74009A"/>
<path d="M157.715 31.1941C158.029 31.7172 158.326 32.0834 158.501 32.5193C158.763 33.1645 159.2 33.4783 159.881 33.3912C160.615 33.2865 161.121 32.9204 161.191 32.1008C161.226 31.5777 161.121 30.9849 161.279 30.5141C161.453 30.0259 161.82 29.433 162.257 29.2238C162.921 28.8925 163.794 28.6658 164.283 29.6074C164.825 30.6536 164.353 32.6239 163.375 33.1296C162.554 33.5481 161.628 33.8794 160.702 33.984C153.697 34.8558 146.674 34.9081 139.686 33.8619C139.075 33.7748 138.463 33.5481 137.904 33.2691C136.734 32.6588 136.175 30.9326 136.716 29.7643C137.083 28.9448 137.817 29.1366 138.463 29.2238C139.599 29.3982 140.717 29.7643 141.87 29.8341C145.539 30.0433 149.207 30.1654 152.858 30.27C153.837 30.3049 154.518 30.4792 154.745 31.6126C154.937 32.6065 156.282 32.8332 156.999 32.0834C157.208 31.8567 157.383 31.6126 157.715 31.1941Z" fill="#74009A"/>
<path d="M150.5 29.6074C146.604 29.1191 142.726 28.6832 138.848 28.1253C137.258 27.8986 136.961 27.3581 136.996 25.719C137.066 23.0861 138.324 21.1332 140.403 19.7034C144.106 17.1402 148.281 16.6171 152.631 16.9833C155.811 17.2623 158.815 18.1166 161.331 20.2439C162.973 21.6214 163.882 23.3999 164.056 25.5621C164.196 27.2011 163.759 27.916 162.135 28.1427C158.274 28.6832 154.396 29.1191 150.482 29.6074H150.5ZM158.763 22.7548C159.025 22.5455 159.095 22.4932 159.182 22.4235C159.532 22.1271 160.143 21.8306 160.161 21.5168C160.161 21.1506 159.689 20.7496 159.374 20.3834C159.217 20.209 158.973 20.1044 158.746 19.9998C153.05 17.3843 147.373 17.4366 141.783 20.2962C141.014 20.6973 140.333 21.4122 139.809 22.1271C139.18 23.0163 139.477 23.5743 140.525 23.923C140.769 23.9928 140.997 24.1148 141.468 24.3066C140.455 24.481 139.721 24.6205 138.97 24.7426C138.97 24.8821 138.97 25.039 138.97 25.1785C140.368 25.5795 141.765 25.9806 143.163 26.3816C142.342 26.5908 141.556 26.5908 140.769 26.5908C140.053 26.5908 139.337 25.9806 138.638 26.6432C146.045 28.3519 153.47 28.4391 160.894 27.0965C160.894 26.9744 160.894 26.8524 160.894 26.7303H156.23C157.977 26.0503 159.916 26.2421 161.541 25.2308C161.541 25.1262 161.506 25.0215 161.488 24.9344C160.143 25.039 158.815 25.1436 157.47 25.2657C158.588 24.76 159.724 24.4636 160.824 24.0974C161.069 24.0102 161.209 23.6615 161.401 23.4523C161.139 23.2604 160.912 22.9466 160.615 22.8943C160.073 22.7897 159.514 22.8245 158.728 22.7722L158.763 22.7548Z" fill="#74009A"/>
<path d="M160.842 34.9429C161.314 34.8383 161.698 34.786 162.065 34.6465C163.026 34.2978 163.707 34.6116 164.126 35.5183C164.545 36.4425 164.283 37.5933 163.34 37.9769C161.89 38.5697 160.388 39.1451 158.868 39.3369C153.033 40.1042 147.163 40.1565 141.328 39.18C140.14 38.9882 138.97 38.5523 137.852 38.0641C136.909 37.663 136.612 36.704 136.874 35.745C137.118 34.8209 137.957 34.3501 138.9 34.6291C140.437 35.0824 141.398 36.2855 142.289 37.5061C142.901 38.3605 143.53 38.6046 144.386 38.0118C146.831 36.303 149.574 35.7101 152.509 35.6753C154.431 35.6578 156.335 35.4835 158.326 35.3788C158.606 36.146 158.903 37.0702 159.986 36.7738C160.842 36.5471 161.069 35.8845 160.824 34.9429H160.842Z" fill="#74009A"/>
<path d="M154.116 41.9525C155.653 41.6735 157.173 41.4294 158.711 41.1329C159.602 40.9586 160.492 40.7319 161.349 40.4355C161.593 40.3483 161.75 39.9473 161.942 39.6857C161.873 39.616 161.803 39.5288 161.733 39.459C162.414 39.2149 163.113 38.9708 163.969 38.6569C164.021 39.2149 164.214 39.738 164.109 40.1914C163.654 42.4407 162.589 44.411 160.265 44.8993C157.348 45.5095 154.343 45.8757 151.356 46.0501C148.037 46.2593 144.718 45.8931 141.468 45.1434C139.215 44.6203 137.922 43.1033 137.241 40.9935C137.013 40.3134 137.101 39.5113 137.048 38.7616C137.206 38.6918 137.363 38.6395 137.503 38.5698C137.765 38.9359 138.009 39.337 138.324 39.6508C138.621 39.9647 138.97 40.3309 139.372 40.4355C140.385 40.697 141.433 40.8191 142.464 41.0109C142.866 41.0806 143.25 41.1853 143.652 41.255C143.652 41.3422 143.652 41.4294 143.634 41.5165C142.761 41.5863 141.87 41.6037 141.014 41.7607C140.595 41.8304 140.193 42.1268 139.791 42.3012C140.088 42.7022 140.315 43.33 140.7 43.452C142.062 43.8879 143.46 44.2715 144.857 44.4459C149.539 45.0562 154.203 44.8993 158.85 44.0797C159.392 43.9925 159.933 43.7833 160.405 43.5043C160.632 43.3648 160.824 42.9289 160.807 42.6499C160.807 42.4581 160.388 42.1443 160.143 42.1268C159.025 42.0745 157.907 42.1268 156.806 42.1268C155.933 42.1268 155.059 42.1268 154.186 42.1268C154.169 42.0571 154.151 41.9873 154.134 41.9176L154.116 41.9525Z" fill="#74009A"/>
<path d="M148.037 24.8298C147.548 25.2134 147.268 25.5447 146.936 25.6493C146.779 25.7016 146.272 25.1611 146.307 25.0739C146.482 24.7426 146.744 24.3764 147.059 24.2195C147.198 24.1497 147.565 24.5159 148.037 24.8298Z" fill="#74009A"/>
<path d="M145.591 21.4296C145.014 21.7086 144.683 21.9353 144.333 21.9701C144.176 21.9701 143.984 21.5865 143.809 21.3773C144.124 21.1506 144.403 20.8542 144.752 20.7321C144.892 20.6798 145.154 21.046 145.591 21.4296Z" fill="#74009A"/>
</svg>
